<svg xmlns="http://www.w3.org/2000/svg" width="600" height="800" viewBox="0 0 600 800">
  <g id="Group_1" data-name="Group 1" transform="translate(-238 -128)">
    <g id="Union_1" data-name="Union 1" transform="translate(238 128)" fill="#2d5aeb">
      <path d="M 300.5001525878906 797.33349609375 L 37.49237442016602 699.7012939453125 L 37.48525238037109 699.4488525390625 C 36.94592666625977 680.2969360351563 21.4389533996582 664.5949096679688 2.500052690505981 663.554931640625 L 2.500052690505981 143.4469299316406 C 21.97562980651855 142.4041442871094 37.50015258789063 126.2307662963867 37.50015258789063 106.4996643066406 C 37.50015258789063 104.7150573730469 37.37105178833008 102.9166641235352 37.11635208129883 101.1543579101563 L 37.03955078125 100.6232604980469 L 36.76823806762695 100.1964492797852 L 299.499267578125 2.666717529296875 L 562.2313842773438 100.1965103149414 L 560.7666625976563 102.4999618530273 L 563.5542602539063 102.4999618530273 C 564.5503540039063 120.8860015869141 579.1976928710938 135.8914642333984 597.5003662109375 137.3788299560547 L 597.5003662109375 663.6196899414063 C 588.7481079101563 664.3193969726563 580.5997314453125 668.0725708007813 574.3372802734375 674.3368530273438 C 567.6226806640625 681.0514526367188 563.779052734375 689.9705810546875 563.5148315429688 699.4508666992188 L 563.5078735351563 699.7009887695313 L 300.5001525878906 797.33349609375 Z" stroke="none"/>
      <path d="M 300.5001525878906 794.6668090820313 L 561.082275390625 697.9346923828125 C 561.6970825195313 688.355224609375 565.7437133789063 679.3948364257813 572.5692749023438 672.5691528320313 C 578.7037963867188 666.4330444335938 586.5330810546875 662.5538940429688 595.000244140625 661.3787231445313 L 595.000244140625 139.6153869628906 C 577.32275390625 137.1210784912109 563.30615234375 122.7730560302734 561.258056640625 104.9999465942383 L 556.2138061523438 104.9999465942383 L 558.46240234375 101.4641876220703 L 299.499267578125 5.333419322967529 L 39.71870422363281 101.7679901123047 C 39.90561294555664 103.3348770141602 40.00015258789063 104.9222640991211 40.00015258789063 106.4997253417969 C 40.00015258789063 126.7582473754883 24.6686897277832 143.5039215087891 5.000041484832764 145.7454986572266 L 5.000041484832764 661.2611694335938 C 23.65888023376465 663.4369506835938 38.67607498168945 678.9440307617188 39.91677474975586 697.9345703125 L 300.5001525878906 794.6668090820313 M 300.5001525878906 800.0001831054688 L 33.99926376342773 701.0712890625 L 34.98626327514648 699.519287109375 C 34.46448516845703 680.9916381835938 19.09437561035156 666.0000610351563 0.4994859099388123 666.0000610351563 C 0.3339303731918335 666.0000610351563 0.1655970364809036 666.0009765625 4.147677827859297e-05 666.0036010742188 L 4.147677827859297e-05 140.9967346191406 C 0.168263703584671 140.9985046386719 0.3312636911869049 141.0002899169922 0.4994859099388123 141.0002899169922 C 19.52281951904297 141.0002899169922 35.00015258789063 125.523063659668 35.00015258789063 106.4997253417969 C 35.00015258789063 104.827392578125 34.87970733642578 103.1560592651367 34.64204025268555 101.5120620727539 L 32.99937438964844 98.92894744873047 L 299.499267578125 6.103515625e-05 L 566.0001220703125 98.92894744873047 L 565.3190307617188 99.99994659423828 L 566.0037231445313 99.99994659423828 L 566.0037231445313 100.0305023193359 L 566.0037231445313 100.040397644043 L 566.0037231445313 100.0647277832031 L 566.0028076171875 100.0709533691406 C 566.001953125 100.2131729125977 566.0001220703125 100.3536148071289 566.0001220703125 100.499397277832 C 566.0001220703125 119.2553939819336 581.2525024414063 134.73095703125 600.000244140625 134.9963989257813 L 600.000244140625 666.0036010742188 C 590.9760131835938 666.1314086914063 582.4899291992188 669.7179565429688 576.1052856445313 676.1043090820313 C 569.8328247070313 682.3768310546875 566.2603759765625 690.6759643554688 566.0137939453125 699.5205078125 L 567.0000610351563 701.0712890625 L 300.5001525878906 800.0001831054688 Z" stroke="none" fill="#e8bf37"/>
    </g>
    <g id="Union_2" data-name="Union 2" transform="translate(250 142)" fill="rgba(152,152,152,0.97)">
      <path d="M 289.982666015625 769.33349609375 L 36.26596069335938 675.1502685546875 L 36.2607536315918 674.9656372070313 C 35.73980331420898 656.4668579101563 20.78306007385254 641.295166015625 2.500052690505981 640.2477416992188 L 2.500052690505981 138.5090484619141 C 21.30161476135254 137.4593505859375 36.27515411376953 121.8315734863281 36.27515411376953 102.7722625732422 C 36.27515411376953 101.0462646484375 36.15025329589844 99.30656433105469 35.90395355224609 97.60166168212891 L 35.82725143432617 97.07035827636719 L 35.61331939697266 96.73405456542969 L 289.016845703125 2.666718006134033 L 542.42138671875 96.73410797119141 L 540.9805297851563 98.99996185302734 L 543.7471313476563 98.99996185302734 C 544.7493286132813 116.7205505371094 558.860595703125 131.1773376464844 576.5003662109375 132.6511383056641 L 576.5003662109375 640.312255859375 C 568.0645141601563 641.005859375 560.2122192382813 644.6327514648438 554.1736450195313 650.6731567382813 C 547.6781616210938 657.1685791015625 543.9599609375 665.7965698242188 543.704345703125 674.9675903320313 L 543.6992797851563 675.1499633789063 L 289.982666015625 769.33349609375 Z" stroke="none"/>
      <path d="M 289.9826049804688 766.666748046875 L 541.2772216796875 673.3822631835938 C 541.8975219726563 664.1377563476563 545.8154907226563 655.4956665039063 552.4055786132813 648.9056396484375 C 558.3160400390625 642.9935302734375 565.8494873046875 639.2426147460938 574.0003662109375 638.078369140625 L 574.0003662109375 134.8806457519531 C 556.9859008789063 132.4098205566406 543.5014038085938 118.6072311401367 541.4583740234375 101.4999618530273 L 536.4281616210938 101.4999618530273 L 538.652587890625 98.0018310546875 L 289.0169067382813 5.333493709564209 L 38.51841735839844 98.32243347167969 C 38.68894195556641 99.79731750488281 38.77515411376953 101.2895889282227 38.77515411376953 102.7722625732422 C 38.77515411376953 122.3586120605469 23.99345016479492 138.5577087402344 5.000052452087402 140.80029296875 L 5.000052452087402 637.9616088867188 C 22.97953987121582 640.1332397460938 37.43447113037109 655.0767822265625 38.68675231933594 673.3821411132813 L 289.9826049804688 766.666748046875 M 289.982666015625 772.0001831054688 L 32.80935287475586 676.5337524414063 L 33.76175308227539 675.0360717773438 C 33.25825119018555 657.156982421875 18.42605209350586 642.6900634765625 0.4820525944232941 642.6900634765625 C 0.3222526013851166 642.6900634765625 0.1597525924444199 642.6909790039063 5.258788951323368e-05 642.6934814453125 L 5.258788951323368e-05 136.0618591308594 C 0.1624525934457779 136.0635681152344 0.3196525871753693 136.0652618408203 0.4820525944232941 136.0652618408203 C 18.83955192565918 136.0652618408203 33.77515411376953 121.1297607421875 33.77515411376953 102.7722625732422 C 33.77515411376953 101.1584625244141 33.65885162353516 99.54566192626953 33.42965316772461 97.95906066894531 L 31.84445190429688 95.46646118164063 L 289.016845703125 6.103515625e-05 L 546.1901245117188 95.46646118164063 L 545.532958984375 96.49996185302734 L 546.1936645507813 96.49996185302734 L 546.1936645507813 96.52946472167969 L 546.1936645507813 96.5390625 L 546.1936645507813 96.56246185302734 L 546.1927490234375 96.56855773925781 C 546.1918334960938 96.70576477050781 546.1901245117188 96.84126281738281 546.1901245117188 96.98196411132813 C 546.1901245117188 115.0814590454102 560.9086303710938 130.0153656005859 579.0003662109375 130.2715606689453 L 579.0003662109375 642.6934814453125 C 570.2918701171875 642.8168334960938 562.1027221679688 646.2777709960938 555.941650390625 652.440673828125 C 549.888671875 658.4935913085938 546.4412231445313 666.5022583007813 546.203369140625 675.0372314453125 L 547.155029296875 676.5337524414063 L 289.982666015625 772.0001831054688 Z" stroke="none" fill="#e8bf37"/>
    </g>
  </g>
</svg>
